<svg width="12" height="12" viewBox="0 0 12 12" fill="none" xmlns="http://www.w3.org/2000/svg">
<path d="M3.87119 0.606249C3.8349 0.607083 3.79953 0.617777 3.76885 0.637183C3.73818 0.656589 3.71336 0.683977 3.69706 0.716411C3.68077 0.748845 3.6736 0.785102 3.67634 0.821297C3.67907 0.857492 3.69161 0.89226 3.7126 0.921874L4.304 1.77656C3.73617 2.21172 3.33845 2.85817 3.23213 3.6H8.76807C8.66175 2.85817 8.26403 2.21172 7.69619 1.77656L8.2876 0.921874C8.30888 0.891827 8.32146 0.856488 8.32394 0.81975C8.32642 0.783013 8.31872 0.746303 8.30167 0.713665C8.28462 0.681027 8.2589 0.653728 8.22733 0.634775C8.19576 0.615822 8.15957 0.605951 8.12275 0.606249C8.0903 0.606548 8.0584 0.614741 8.02982 0.630122C8.00123 0.645502 7.97682 0.667608 7.95869 0.69453L7.3626 1.55703C6.9594 1.33109 6.49562 1.2 6.0001 1.2C5.50458 1.2 5.0408 1.33109 4.6376 1.55703L4.0415 0.69453C4.02279 0.666723 3.99738 0.644066 3.96762 0.62864C3.93786 0.613214 3.9047 0.605515 3.87119 0.606249ZM4.8001 2C5.0209 2 5.2001 2.1792 5.2001 2.4C5.2001 2.6208 5.0209 2.8 4.8001 2.8C4.5793 2.8 4.4001 2.6208 4.4001 2.4C4.4001 2.1792 4.5793 2 4.8001 2ZM7.2001 2C7.4209 2 7.6001 2.1792 7.6001 2.4C7.6001 2.6208 7.4209 2.8 7.2001 2.8C6.9793 2.8 6.8001 2.6208 6.8001 2.4C6.8001 2.1792 6.9793 2 7.2001 2ZM2.0001 4.4C1.7793 4.4 1.6001 4.5792 1.6001 4.8V8C1.6001 8.2208 1.7793 8.4 2.0001 8.4C2.2209 8.4 2.4001 8.2208 2.4001 8V4.8C2.4001 4.5792 2.2209 4.4 2.0001 4.4ZM3.2001 4.4V8.4C3.2001 8.842 3.5581 9.2 4.0001 9.2V10.6C4.0001 10.9312 4.2689 11.2 4.6001 11.2C4.9313 11.2 5.2001 10.9312 5.2001 10.6V9.2H6.8001V10.6C6.8001 10.9312 7.0689 11.2 7.4001 11.2C7.7313 11.2 8.0001 10.9312 8.0001 10.6V9.2C8.4421 9.2 8.8001 8.842 8.8001 8.4V4.4H3.2001ZM10.0001 4.4C9.7793 4.4 9.6001 4.5792 9.6001 4.8V8C9.6001 8.2208 9.7793 8.4 10.0001 8.4C10.2209 8.4 10.4001 8.2208 10.4001 8V4.8C10.4001 4.5792 10.2209 4.4 10.0001 4.4Z" fill="black"/>
</svg>
