<svg width="12" height="12" viewBox="0 0 12 12" fill="none" xmlns="http://www.w3.org/2000/svg">
<path d="M10.2262 3.91393C10.177 3.94473 9.00576 4.59473 9.00576 6.03593C9.06096 7.67953 10.4838 8.25593 10.5082 8.25593C10.4838 8.28673 10.2934 9.04113 9.72936 9.83193C9.28176 10.5131 8.78496 11.1999 8.03056 11.1999C7.31296 11.1999 7.05536 10.7459 6.22736 10.7459C5.33816 10.7459 5.08656 11.1999 4.40576 11.1999C3.65136 11.1999 3.11776 10.4763 2.64576 9.80153C2.03256 8.91833 1.51136 7.53233 1.49296 6.20153C1.48056 5.49633 1.61576 4.80313 1.95896 4.21433C2.44336 3.39233 3.30816 2.83433 4.25256 2.81593C4.97616 2.79153 5.62016 3.31273 6.06176 3.31273C6.48496 3.31273 7.27616 2.81593 8.17136 2.81593C8.55776 2.81633 9.58816 2.93273 10.2262 3.91393ZM6.00056 2.67513C5.87176 2.03113 6.22736 1.38713 6.55856 0.976334C6.98176 0.479534 7.65016 0.142334 8.22656 0.142334C8.26336 0.786334 8.03016 1.41793 7.61336 1.87793C7.23937 2.37473 6.59536 2.74873 6.00056 2.67513Z" fill="black"/>
</svg>
