<svg width="9" height="15" viewBox="0 0 9 15" fill="none" xmlns="http://www.w3.org/2000/svg">
<path d="M0.351562 7.85938C0.359375 7.53906 0.46875 7.27344 0.726562 7.02344L6.74219 1.14062C6.9375 0.9375 7.17969 0.84375 7.47656 0.84375C8.0625 0.84375 8.53125 1.30469 8.53125 1.89062C8.53125 2.17969 8.41406 2.44531 8.20312 2.65625L2.85938 7.85156L8.20312 13.0625C8.41406 13.2734 8.53125 13.5312 8.53125 13.8281C8.53125 14.4141 8.0625 14.8828 7.47656 14.8828C7.1875 14.8828 6.9375 14.7812 6.74219 14.5781L0.726562 8.69531C0.46875 8.44531 0.351562 8.17969 0.351562 7.85938Z" fill="#322B29"/>
</svg>
