<svg width="21" height="20" viewBox="0 0 21 20" fill="none" xmlns="http://www.w3.org/2000/svg">
<path d="M17.9998 10.8333H16.3332C16.0971 10.8333 15.8991 10.7534 15.7394 10.5937C15.5797 10.434 15.4998 10.2361 15.4998 9.99995C15.4998 9.76383 15.5797 9.56592 15.7394 9.4062C15.8991 9.24647 16.0971 9.16661 16.3332 9.16661H17.9998C18.2359 9.16661 18.4339 9.24647 18.5936 9.4062C18.7533 9.56592 18.8332 9.76383 18.8332 9.99995C18.8332 10.2361 18.7533 10.434 18.5936 10.5937C18.4339 10.7534 18.2359 10.8333 17.9998 10.8333ZM14.3332 13.9999C14.4721 13.8055 14.6526 13.6944 14.8748 13.6666C15.0971 13.6388 15.3054 13.6944 15.4998 13.8333L16.8332 14.8333C17.0276 14.9722 17.1387 15.1527 17.1665 15.3749C17.1943 15.5972 17.1387 15.8055 16.9998 15.9999C16.8609 16.1944 16.6804 16.3055 16.4582 16.3333C16.2359 16.3611 16.0276 16.3055 15.8332 16.1666L14.4998 15.1666C14.3054 15.0277 14.1943 14.8472 14.1665 14.6249C14.1387 14.4027 14.1943 14.1944 14.3332 13.9999ZM16.8332 5.16661L15.4998 6.16661C15.3054 6.3055 15.0971 6.36106 14.8748 6.33328C14.6526 6.3055 14.4721 6.19439 14.3332 5.99995C14.1943 5.8055 14.1387 5.59717 14.1665 5.37495C14.1943 5.15272 14.3054 4.97217 14.4998 4.83328L15.8332 3.83328C16.0276 3.69439 16.2359 3.63883 16.4582 3.66661C16.6804 3.69439 16.8609 3.8055 16.9998 3.99995C17.1387 4.19439 17.1943 4.40272 17.1665 4.62495C17.1387 4.84717 17.0276 5.02772 16.8332 5.16661ZM4.6665 12.4999H3.83317C3.37484 12.4999 2.98248 12.3368 2.65609 12.0104C2.3297 11.684 2.1665 11.2916 2.1665 10.8333V9.16661C2.1665 8.70828 2.3297 8.31592 2.65609 7.98953C2.98248 7.66314 3.37484 7.49995 3.83317 7.49995H7.1665L10.0623 5.74995C10.3401 5.58328 10.6214 5.58328 10.9061 5.74995C11.1908 5.91661 11.3332 6.15967 11.3332 6.47911V13.5208C11.3332 13.8402 11.1908 14.0833 10.9061 14.2499C10.6214 14.4166 10.3401 14.4166 10.0623 14.2499L7.1665 12.4999H6.33317V14.9999C6.33317 15.2361 6.25331 15.434 6.09359 15.5937C5.93386 15.7534 5.73595 15.8333 5.49984 15.8333C5.26373 15.8333 5.06581 15.7534 4.90609 15.5937C4.74636 15.434 4.6665 15.2361 4.6665 14.9999V12.4999ZM12.1665 12.7916V7.20828C12.5415 7.54161 12.8436 7.94786 13.0728 8.42703C13.3019 8.9062 13.4165 9.4305 13.4165 9.99995C13.4165 10.5694 13.3019 11.0937 13.0728 11.5729C12.8436 12.052 12.5415 12.4583 12.1665 12.7916Z" fill="#FF7D52"/>
</svg>
