<svg width="90" height="90" viewBox="0 0 90 90" fill="none" xmlns="http://www.w3.org/2000/svg">
<path d="M62.4919 14.3853H66.8648C68.6469 14.1311 70.4636 14.2951 72.1712 14.8645C73.8788 15.4339 75.4305 16.3929 76.7033 17.6658C77.9761 18.9386 78.9352 20.4902 79.5046 22.1979C80.0739 23.9055 80.238 25.7222 79.9837 27.5042V71.2339C80.238 73.0159 80.0739 74.8326 79.5046 76.5402C78.9352 78.2479 77.9761 79.7995 76.7033 81.0723C75.4305 82.3452 73.8788 83.3042 72.1712 83.8736C70.4636 84.443 68.6469 84.607 66.8648 84.3528H23.1352C21.3532 84.607 19.5365 84.443 17.8288 83.8736C16.1212 83.3042 14.5696 82.3452 13.2967 81.0723C12.0239 79.7995 11.0648 78.2479 10.4955 76.5402C9.9261 74.8326 9.76204 73.0159 10.0163 71.2339V27.5042C9.76204 25.7222 9.9261 23.9055 10.4955 22.1979C11.0648 20.4902 12.0239 18.9386 13.2967 17.6658C14.5696 16.3929 16.1212 15.4339 17.8288 14.8645C19.5365 14.2951 21.3532 14.1311 23.1352 14.3853H27.5082" fill="#FFF0E3"/>
<path d="M62.4919 12.1986V16.5716C62.6191 17.4626 62.537 18.371 62.2523 19.2248C61.9677 20.0786 61.4881 20.8544 60.8517 21.4908C60.2153 22.1272 59.4395 22.6068 58.5857 22.8915C57.7319 23.1762 56.8235 23.2582 55.9325 23.1311H34.0677C33.1767 23.2582 32.2683 23.1762 31.4145 22.8915C30.5607 22.6068 29.7848 22.1272 29.1484 21.4908C28.512 20.8544 28.0325 20.0786 27.7478 19.2248C27.4631 18.371 27.3811 17.4626 27.5082 16.5716V12.1986C27.3811 11.3076 27.4631 10.3993 27.7478 9.54546C28.0325 8.69165 28.512 7.91583 29.1484 7.27941C29.7848 6.643 30.5607 6.16347 31.4145 5.87878C32.2683 5.59409 33.1767 5.51206 34.0677 5.63919H55.9325C56.8235 5.51206 57.7319 5.59409 58.5857 5.87878C59.4395 6.16347 60.2153 6.643 60.8517 7.27941C61.4881 7.91583 61.9677 8.69165 62.2523 9.54546C62.537 10.3993 62.6191 11.3076 62.4919 12.1986Z" fill="#FF7D52"/>
<path d="M41.3573 61.3946C40.9265 61.3956 40.4998 61.3111 40.102 61.146C39.7041 60.9808 39.343 60.7383 39.0396 60.4325L31.7499 53.1472C31.4444 52.8428 31.2018 52.4812 31.036 52.0831C30.8703 51.685 30.7845 51.2582 30.7837 50.8269C30.7821 49.956 31.1265 49.1201 31.7411 48.5031C32.0455 48.1976 32.4071 47.955 32.8052 47.7892C33.2033 47.6234 33.6301 47.5377 34.0614 47.5369C34.9323 47.5352 35.7682 47.8796 36.3852 48.4943L41.3573 53.462L53.6016 41.2177C54.2186 40.6013 55.0552 40.2552 55.9274 40.2556C56.7995 40.256 57.6358 40.6029 58.2523 41.2199C58.8687 41.8369 59.2148 42.6735 59.2143 43.5457C59.2139 44.4178 58.8671 45.2541 58.2501 45.8705L43.6881 60.4325C43.3831 60.7399 43.0199 60.9833 42.6197 61.1485C42.2195 61.3137 41.7903 61.3974 41.3573 61.3946Z" fill="#FF7D52"/>
</svg>
