<svg width="17" height="17" viewBox="0 0 17 17" fill="none" xmlns="http://www.w3.org/2000/svg">
<path d="M6.5 12.33C6.13333 12.33 5.81944 12.1994 5.55833 11.9383C5.29722 11.6772 5.16667 11.3633 5.16667 10.9967V2.99666C5.16667 2.63 5.29722 2.31611 5.55833 2.055C5.81944 1.79389 6.13333 1.66333 6.5 1.66333H12.5C12.8667 1.66333 13.1806 1.79389 13.4417 2.055C13.7028 2.31611 13.8333 2.63 13.8333 2.99666V10.9967C13.8333 11.3633 13.7028 11.6772 13.4417 11.9383C13.1806 12.1994 12.8667 12.33 12.5 12.33H6.5ZM6.5 10.9967H12.5V2.99666H6.5V10.9967ZM3.83333 14.9967C3.46667 14.9967 3.15278 14.8661 2.89167 14.605C2.63056 14.3439 2.5 14.03 2.5 13.6633V4.99666C2.5 4.80777 2.56389 4.64944 2.69167 4.52166C2.81944 4.39389 2.97778 4.33 3.16667 4.33C3.35556 4.33 3.51389 4.39389 3.64167 4.52166C3.76944 4.64944 3.83333 4.80777 3.83333 4.99666V13.6633H10.5C10.6889 13.6633 10.8472 13.7272 10.975 13.855C11.1028 13.9828 11.1667 14.1411 11.1667 14.33C11.1667 14.5189 11.1028 14.6772 10.975 14.805C10.8472 14.9328 10.6889 14.9967 10.5 14.9967H3.83333Z" fill="#322B29"/>
</svg>
