<svg width="167" height="44" viewBox="0 0 167 44" fill="none" xmlns="http://www.w3.org/2000/svg">
<g clip-path="url(#clip0_335_4949)">
<path fill-rule="evenodd" clip-rule="evenodd" d="M21.8351 12.2567C23.333 9.42366 22.7265 6.17022 20.4803 4.98993C18.2342 3.80965 15.1991 5.14946 13.7012 7.9825C12.2033 10.8155 12.8099 14.069 15.056 15.2493C17.3021 16.4295 20.3372 15.0897 21.8351 12.2567ZM13.026 22.4901C12.716 22.7173 12.3686 22.9513 12.0041 23.1967C10.6239 24.1261 8.99969 25.2197 8.24413 26.733C6.25944 30.7081 8.23921 31.4642 11.061 32.5418C12.0026 32.9014 13.0379 33.2968 14.051 33.8595C15.064 34.4223 15.9589 35.099 16.7727 35.7145C19.2116 37.559 20.9227 38.8531 22.9074 34.8781C23.663 33.3646 23.599 31.3333 23.5446 29.6069C23.5303 29.1511 23.5166 28.7166 23.5188 28.3185C23.5379 24.9423 22.9565 22.6439 20.3685 21.2063C17.7803 19.7687 15.6545 20.5634 13.026 22.4901ZM33.4146 11.7673C35.6607 12.9475 36.2673 16.201 34.7694 19.034C33.2716 21.867 30.2364 23.2067 27.9903 22.0264C25.7442 20.8462 25.1376 17.5928 26.6355 14.7598C28.1334 11.9268 31.1685 10.587 33.4146 11.7673ZM7.91511 17.5778C8.76516 15.0291 7.85954 12.4343 5.89235 11.7822C3.92516 11.1302 1.64134 12.6678 0.79129 15.2165C-0.0587604 17.7653 0.846859 20.3601 2.81405 21.0122C4.78124 21.6642 7.06506 20.1266 7.91511 17.5778ZM36.077 27.6343C37.7283 28.8837 37.7466 31.631 36.1178 33.7705C34.489 35.9101 31.83 36.6317 30.1786 35.3823C28.5273 34.1329 28.509 31.3856 30.1378 29.246C31.7666 27.1065 34.4256 26.3848 36.077 27.6343Z" fill="#FF7D52"/>
<path fill-rule="evenodd" clip-rule="evenodd" d="M88.3622 26.6263C86.4285 26.5849 84.8546 25.0517 84.8995 23.2699C84.9445 21.4881 86.6084 20.0378 88.542 20.0793C90.5207 20.1207 92.0496 21.6539 92.0047 23.4357C91.9597 25.2589 90.2958 26.6678 88.3622 26.6263ZM77.5246 23.9744C77.8844 28.5324 82.2464 31.8888 87.148 31.5159C88.9018 31.3502 90.6556 30.4385 92.0047 29.6512C92.8141 30.6457 93.2638 31.1015 93.8484 31.3502C94.9277 31.806 96.1868 31.6402 97.0412 31.143C98.9466 30.0322 98.9354 28.3017 98.9265 26.9429C98.9252 26.7303 98.9238 26.5269 98.9299 26.3363V18.3389C98.9749 16.4743 99.0199 11.9576 96.1868 9.76147C93.1289 7.27525 87.4628 7.441 84.6297 8.26974C83.1982 8.68195 82.7903 8.97114 81.6351 9.78996L81.6168 9.80291C80.6275 10.4245 79.9979 11.9576 80.7174 13.1179C81.3919 14.2367 82.9659 14.651 84.18 13.988C86.2936 12.8278 88.587 12.0819 90.7905 13.2422C91.9077 13.8304 91.892 14.8754 91.8743 16.0586V16.0588V16.059C91.8721 16.2092 91.8698 16.3617 91.8698 16.5157C90.026 15.6455 87.5977 15.024 85.619 15.1068C80.7624 15.4798 77.1199 19.4577 77.5246 23.9744ZM62.7828 23.5401C59.9854 23.5401 57.7475 21.2719 57.7475 18.5203C57.7475 15.7687 59.9854 13.5377 62.7828 13.5377C65.5802 13.5377 67.818 15.7687 67.818 18.5575C67.818 21.3462 65.5802 23.5401 62.7828 23.5401ZM54.428 36.1081C56.0318 36.0709 57.2626 34.7323 57.2626 33.0963V27.7046C58.8665 28.8945 60.5076 29.2663 62.7828 29.2663C68.7505 29.2663 73.5993 24.5068 73.5993 18.5947C73.5993 12.6825 68.7132 7.84861 62.7828 7.84861C60.6195 7.84861 58.5681 8.48073 56.8897 9.55905C56.868 9.48881 56.8494 9.4225 56.8317 9.35886L56.8316 9.35878C56.7271 8.98447 56.6483 8.70252 56.1064 8.25763C55.5469 7.73706 53.8685 7.81142 53.3836 7.96016C51.2746 8.661 51.2856 11.013 51.2939 12.7755C51.2944 12.8832 51.2949 12.9887 51.2949 13.0915V33.245C51.2949 34.8439 52.8241 36.1453 54.428 36.1081ZM127.878 26.8202C127.097 29.3022 126.614 30.5988 124.162 30.5988C121.751 30.5988 121.133 28.6427 120.435 26.436C120.402 26.3299 120.368 26.2233 120.334 26.1163L118.03 19.1517L115.652 26.4497C114.76 29.117 114.203 30.5988 111.527 30.5988C109.298 30.5988 108.864 29.264 108.176 27.1438C108.13 27.0023 108.083 26.8573 108.034 26.709L103.612 12.8909C103.203 11.5573 103.835 9.89024 105.21 9.40865C106.511 8.9641 108.331 9.55683 108.703 11.0757L111.824 20.3001L114.054 13.3725C114.872 10.6682 115.503 9.26046 118.179 9.26046C120.735 9.26046 121.188 10.681 122.002 13.2312C122.039 13.35 122.078 13.4712 122.118 13.5948L124.236 20.1149L127.283 11.0757C127.878 9.40865 129.438 9.00114 130.813 9.40865C132.225 9.8532 132.783 11.5203 132.374 12.8909L127.878 26.8202ZM157.422 30.5988C159.874 30.5988 160.357 29.3022 161.138 26.8202L165.634 12.8909C166.043 11.5203 165.485 9.8532 164.073 9.40865C162.698 9.00114 161.138 9.40865 160.543 11.0757L157.496 20.1149L155.378 13.5948C155.338 13.4712 155.3 13.35 155.262 13.2312C154.448 10.681 153.995 9.26046 151.439 9.26046C148.763 9.26046 148.132 10.6682 147.314 13.3725L145.085 20.3001L141.963 11.0757C141.591 9.55683 139.771 8.9641 138.47 9.40865C137.095 9.89024 136.463 11.5573 136.872 12.8909L141.294 26.709C141.343 26.8573 141.39 27.0023 141.436 27.1438C142.124 29.264 142.558 30.5988 144.787 30.5988C147.463 30.5988 148.02 29.117 148.912 26.4497L151.29 19.1517L153.594 26.1163C153.628 26.2233 153.662 26.3299 153.695 26.436C154.393 28.6427 155.011 30.5988 157.422 30.5988Z" fill="#322B29"/>
</g>
<defs>
<clipPath id="clip0_335_4949">
<rect width="167" height="44" fill="white"/>
</clipPath>
</defs>
</svg>
