<svg width="72" height="61" viewBox="0 0 72 61" fill="none" xmlns="http://www.w3.org/2000/svg">
<path d="M67.75 21.4876C67.7436 21.3199 67.7008 21.1557 67.6246 21.0062C67.5483 20.8568 67.4404 20.7257 67.3083 20.6222C67.1762 20.5187 67.0232 20.4452 66.8599 20.4069C66.6965 20.3685 66.5268 20.3662 66.3625 20.4001C65.3121 20.5965 64.2411 20.6595 63.175 20.5876C60.0017 20.3675 57.0144 19.0099 54.7617 16.7641C52.5091 14.5183 51.1423 11.5352 50.9125 8.3626C50.8406 7.28398 50.9036 6.20061 51.1 5.1376C51.1395 4.97276 51.1413 4.80111 51.1052 4.63547C51.0691 4.46984 50.996 4.31451 50.8915 4.18109C50.7869 4.04766 50.6535 3.9396 50.5013 3.86497C50.3491 3.79034 50.182 3.75107 50.0125 3.7501H11.5C9.97183 3.53207 8.41392 3.67275 6.94956 4.16101C5.4852 4.64928 4.1546 5.47171 3.06309 6.56321C1.97159 7.65472 1.14915 8.98532 0.660891 10.4497C0.172627 11.914 0.0319433 13.472 0.249975 15.0001V48.7501C0.0319433 50.2782 0.172627 51.8362 0.660891 53.3005C1.14915 54.7649 1.97159 56.0955 3.06309 57.187C4.1546 58.2785 5.4852 59.1009 6.94956 59.5892C8.41392 60.0774 9.97183 60.2181 11.5 60.0001H56.5C58.0281 60.2181 59.586 60.0774 61.0504 59.5892C62.5148 59.1009 63.8454 58.2785 64.9369 57.187C66.0284 56.0955 66.8508 54.7649 67.3391 53.3005C67.8273 51.8362 67.968 50.2782 67.75 48.7501V21.4876Z" fill="#FFF0E3"/>
<path d="M64 15C68.1421 15 71.5 11.6421 71.5 7.5C71.5 3.35786 68.1421 0 64 0C59.8579 0 56.5 3.35786 56.5 7.5C56.5 11.6421 59.8579 15 64 15Z" fill="#FF7D52"/>
<path d="M34 39.27C32.5076 39.2689 31.0602 38.7582 29.8975 37.8225L13.4913 24.6975C12.9367 24.2221 12.5886 23.5498 12.5204 22.8225C12.4521 22.0953 12.6691 21.37 13.1256 20.7997C13.582 20.2294 14.2421 19.8588 14.9666 19.766C15.6912 19.6732 16.4234 19.8656 17.0088 20.3025L33.415 33.4275C33.5817 33.5589 33.7878 33.6303 34 33.6303C34.2123 33.6303 34.4183 33.5589 34.585 33.4275L50.9913 20.3025C51.2781 20.0565 51.6115 19.8709 51.9716 19.7565C52.3317 19.6421 52.7112 19.6013 53.0874 19.6366C53.4636 19.6719 53.8288 19.7825 54.1614 19.9619C54.4939 20.1413 54.787 20.3858 55.0231 20.6808C55.2592 20.9758 55.4335 21.3153 55.5357 21.679C55.6378 22.0428 55.6657 22.4234 55.6178 22.7982C55.5698 23.173 55.4468 23.5343 55.2563 23.8606C55.0658 24.1869 54.8116 24.4715 54.5088 24.6975L38.1025 37.8225C36.9398 38.7582 35.4925 39.2689 34 39.27Z" fill="#FEC59D"/>
</svg>
