<svg width="25" height="24" viewBox="0 0 25 24" fill="none" xmlns="http://www.w3.org/2000/svg">
<path d="M4.5 20C3.95 20 3.47917 19.8042 3.0875 19.4125C2.69583 19.0208 2.5 18.55 2.5 18V14.625C2.5 14.4417 2.55833 14.2833 2.675 14.15C2.79167 14.0167 2.94167 13.9333 3.125 13.9C3.525 13.7667 3.85417 13.525 4.1125 13.175C4.37083 12.825 4.5 12.4333 4.5 12C4.5 11.5667 4.37083 11.175 4.1125 10.825C3.85417 10.475 3.525 10.2333 3.125 10.1C2.94167 10.0667 2.79167 9.98333 2.675 9.85C2.55833 9.71667 2.5 9.55833 2.5 9.375V6C2.5 5.45 2.69583 4.97917 3.0875 4.5875C3.47917 4.19583 3.95 4 4.5 4H20.5C21.05 4 21.5208 4.19583 21.9125 4.5875C22.3042 4.97917 22.5 5.45 22.5 6V9.375C22.5 9.55833 22.4417 9.71667 22.325 9.85C22.2083 9.98333 22.0583 10.0667 21.875 10.1C21.475 10.2333 21.1458 10.475 20.8875 10.825C20.6292 11.175 20.5 11.5667 20.5 12C20.5 12.4333 20.6292 12.825 20.8875 13.175C21.1458 13.525 21.475 13.7667 21.875 13.9C22.0583 13.9333 22.2083 14.0167 22.325 14.15C22.4417 14.2833 22.5 14.4417 22.5 14.625V18C22.5 18.55 22.3042 19.0208 21.9125 19.4125C21.5208 19.8042 21.05 20 20.5 20H4.5ZM4.5 18H20.5V15.45C19.8833 15.0833 19.3958 14.5958 19.0375 13.9875C18.6792 13.3792 18.5 12.7167 18.5 12C18.5 11.2833 18.6792 10.6208 19.0375 10.0125C19.3958 9.40417 19.8833 8.91667 20.5 8.55V6H4.5V8.55C5.11667 8.91667 5.60417 9.40417 5.9625 10.0125C6.32083 10.6208 6.5 11.2833 6.5 12C6.5 12.7167 6.32083 13.3792 5.9625 13.9875C5.60417 14.5958 5.11667 15.0833 4.5 15.45V18ZM12.5 17C12.7833 17 13.0208 16.9042 13.2125 16.7125C13.4042 16.5208 13.5 16.2833 13.5 16C13.5 15.7167 13.4042 15.4792 13.2125 15.2875C13.0208 15.0958 12.7833 15 12.5 15C12.2167 15 11.9792 15.0958 11.7875 15.2875C11.5958 15.4792 11.5 15.7167 11.5 16C11.5 16.2833 11.5958 16.5208 11.7875 16.7125C11.9792 16.9042 12.2167 17 12.5 17ZM12.5 13C12.7833 13 13.0208 12.9042 13.2125 12.7125C13.4042 12.5208 13.5 12.2833 13.5 12C13.5 11.7167 13.4042 11.4792 13.2125 11.2875C13.0208 11.0958 12.7833 11 12.5 11C12.2167 11 11.9792 11.0958 11.7875 11.2875C11.5958 11.4792 11.5 11.7167 11.5 12C11.5 12.2833 11.5958 12.5208 11.7875 12.7125C11.9792 12.9042 12.2167 13 12.5 13ZM12.5 9C12.7833 9 13.0208 8.90417 13.2125 8.7125C13.4042 8.52083 13.5 8.28333 13.5 8C13.5 7.71667 13.4042 7.47917 13.2125 7.2875C13.0208 7.09583 12.7833 7 12.5 7C12.2167 7 11.9792 7.09583 11.7875 7.2875C11.5958 7.47917 11.5 7.71667 11.5 8C11.5 8.28333 11.5958 8.52083 11.7875 8.7125C11.9792 8.90417 12.2167 9 12.5 9Z" fill="currentColor"/>
</svg>
