<svg width="90" height="90" viewBox="0 0 90 90" fill="none" xmlns="http://www.w3.org/2000/svg">
<path d="M36.2536 67.9795C26.9546 66.339 23.1297 60.8679 24.7787 51.5661L30.4694 19.1982V19.1685L14.3662 22.0032C5.06439 23.655 1.2394 29.1333 2.89123 38.4379L9.45745 75.6508C11.0583 84.9554 16.5195 88.7804 25.8411 87.1257L53.7508 82.2127C60.2703 81.0355 64.142 77.9628 65.179 73.054L65.1493 73.003C64.8178 72.9563 64.516 72.9563 64.176 72.8968L36.2536 67.9795Z" fill="#FF7D52"/>
<path d="M75.6381 7.78702L47.737 2.86979C38.4352 1.2293 32.964 5.05428 31.3235 14.3448L30.4735 19.1812L24.7615 51.5661C23.1239 60.8679 26.9489 66.3391 36.2365 67.9796L64.1419 72.8968C64.4819 72.9563 64.7836 72.9563 65.1151 73.0031C73.8021 74.1973 78.9743 70.3638 80.5553 61.4048L87.1131 24.2005C88.7649 14.9015 84.9399 9.43035 75.6381 7.78702Z" fill="#FFF0E3"/>
<path d="M69.9007 43.5294C69.7155 43.5307 69.5306 43.5151 69.3482 43.4826L41.4428 38.5612C40.624 38.4003 39.9008 37.9248 39.4287 37.2367C38.9566 36.5485 38.7732 35.7027 38.9179 34.8808C39.0625 34.0589 39.5238 33.3266 40.2025 32.841C40.8812 32.3555 41.7233 32.1555 42.5478 32.2839L70.449 37.2054C71.2307 37.3469 71.9314 37.7751 72.4138 38.4062C72.8962 39.0373 73.1256 39.8259 73.057 40.6173C72.9884 41.4087 72.6267 42.146 72.0429 42.6846C71.459 43.2233 70.6951 43.5246 69.9007 43.5294ZM76.025 27.0352C76.0977 26.6227 76.0885 26.2 75.9977 25.7911C75.907 25.3822 75.7366 24.9952 75.4962 24.6522C75.2559 24.3092 74.9502 24.0169 74.5969 23.7921C74.2435 23.5673 73.8493 23.4143 73.4367 23.342L45.5228 18.4247C44.6982 18.2963 43.8562 18.4963 43.1775 18.9818C42.4988 19.4674 42.0375 20.1997 41.8929 21.0216C41.7482 21.8435 41.9316 22.6893 42.4037 23.3775C42.8758 24.0656 43.5989 24.5411 44.4178 24.702L72.3232 29.6234C72.507 29.6557 72.6934 29.6713 72.88 29.6702C73.6307 29.6724 74.3581 29.4092 74.9336 28.927C75.5091 28.4448 75.8956 27.7748 76.025 27.0352ZM60.1045 53.0749C60.1773 52.6624 60.168 52.2396 60.0773 51.8307C59.9866 51.4218 59.8162 51.0348 59.5758 50.6919C59.3354 50.3489 59.0298 50.0566 58.6764 49.8318C58.323 49.607 57.9288 49.454 57.5163 49.3816L40.0913 46.3046C39.2584 46.1581 38.4013 46.3485 37.7087 46.8339C37.0161 47.3193 36.5446 48.0599 36.3981 48.8929C36.2516 49.7259 36.4419 50.5829 36.9273 51.2755C37.4127 51.9682 38.1534 52.4396 38.9863 52.5861L56.4113 55.6589C56.5935 55.6927 56.7784 55.7097 56.9638 55.7099C57.7136 55.7102 58.4395 55.4462 59.014 54.9643C59.5884 54.4823 59.9745 53.8133 60.1045 53.0749Z" fill="#FEC59D"/>
</svg>
