<svg width="234" height="148" viewBox="0 0 234 148" fill="none" xmlns="http://www.w3.org/2000/svg">
<g clip-path="url(#clip0_443_3401)">
<path d="M43.5 16C43.5 7.16344 50.6634 0 59.5 0H175.5C184.337 0 191.5 7.16344 191.5 16V148H43.5V16Z" fill="#585F69"/>
<g clip-path="url(#clip1_443_3401)">
<path d="M53.5 20C53.5 14.4772 57.9772 10 63.5 10H171.5C177.023 10 181.5 14.4772 181.5 20V148H53.5V20Z" fill="white"/>
<g clip-path="url(#clip2_443_3401)">
<rect x="63.5" y="39" width="108.327" height="152.243" rx="11.711" fill="#F8F9FC"/>
<rect x="64" y="39.5" width="107.327" height="151.243" rx="11.211" stroke="black" stroke-opacity="0.1"/>
<path d="M95.3354 90.7242C94.5375 90.7242 93.864 90.4496 93.3148 89.9004C92.7661 89.3517 92.4917 88.6784 92.4917 87.8804V80.3354C92.4917 79.5375 92.7661 78.864 93.3148 78.3148C93.864 77.7661 94.5375 77.4917 95.3354 77.4917H102.88C103.678 77.4917 104.352 77.7661 104.9 78.3148C105.45 78.864 105.724 79.5375 105.724 80.3354C105.724 81.1334 105.45 81.8069 104.9 82.3561C104.352 82.9048 103.678 83.1792 102.88 83.1792H98.1792V87.8804C98.1792 88.6784 97.9048 89.3517 97.3561 89.9004C96.8069 90.4496 96.1334 90.7242 95.3354 90.7242ZM95.3354 128.508C94.5375 128.508 93.864 128.234 93.3148 127.685C92.7661 127.136 92.4917 126.462 92.4917 125.664V118.119C92.4917 117.321 92.7661 116.648 93.3148 116.099C93.864 115.55 94.5375 115.275 95.3354 115.275C96.1334 115.275 96.8069 115.55 97.3561 116.099C97.9048 116.648 98.1792 117.321 98.1792 118.119V122.82H102.88C103.678 122.82 104.352 123.095 104.9 123.644C105.45 124.193 105.724 124.866 105.724 125.664C105.724 126.462 105.45 127.136 104.9 127.685C104.352 128.234 103.678 128.508 102.88 128.508H95.3354ZM133.119 128.508C132.321 128.508 131.648 128.234 131.099 127.685C130.55 127.136 130.275 126.462 130.275 125.664C130.275 124.866 130.55 124.193 131.099 123.644C131.648 123.095 132.321 122.82 133.119 122.82H137.82V118.119C137.82 117.321 138.095 116.648 138.644 116.099C139.193 115.55 139.866 115.275 140.664 115.275C141.462 115.275 142.136 115.55 142.685 116.099C143.234 116.648 143.508 117.321 143.508 118.119V125.664C143.508 126.462 143.234 127.136 142.685 127.685C142.136 128.234 141.462 128.508 140.664 128.508H133.119ZM140.664 90.7242C139.866 90.7242 139.193 90.4496 138.644 89.9004C138.095 89.3517 137.82 88.6784 137.82 87.8804V83.1792H133.119C132.321 83.1792 131.648 82.9048 131.099 82.3561C130.55 81.8069 130.275 81.1334 130.275 80.3354C130.275 79.5375 130.55 78.864 131.099 78.3148C131.648 77.7661 132.321 77.4917 133.119 77.4917H140.664C141.462 77.4917 142.136 77.7661 142.685 78.3148C143.234 78.864 143.508 79.5375 143.508 80.3354V87.8804C143.508 88.6784 143.234 89.3517 142.685 89.9004C142.136 90.4496 141.462 90.7242 140.664 90.7242ZM131.75 120.5V116.75H135.5V120.5H131.75ZM131.75 113V109.25H135.5V113H131.75ZM128 116.75V113H131.75V116.75H128ZM124.25 120.5V116.75H128V120.5H124.25ZM120.5 116.75V113H124.25V116.75H120.5ZM128 109.25V105.5H131.75V109.25H128ZM124.25 113V109.25H128V113H124.25ZM120.5 109.25V105.5H124.25V109.25H120.5ZM123.344 100.5C122.546 100.5 121.872 100.225 121.323 99.6767C120.774 99.1275 120.5 98.454 120.5 97.6561V88.3436C120.5 87.5457 120.774 86.8721 121.323 86.3229C121.872 85.7742 122.546 85.4998 123.344 85.4998H132.656C133.454 85.4998 134.128 85.7742 134.677 86.3229C135.225 86.8721 135.5 87.5457 135.5 88.3436V97.6561C135.5 98.454 135.225 99.1275 134.677 99.6767C134.128 100.225 133.454 100.5 132.656 100.5H123.344ZM103.344 120.5C102.546 120.5 101.872 120.225 101.323 119.677C100.774 119.128 100.5 118.454 100.5 117.656V108.344C100.5 107.546 100.774 106.872 101.323 106.323C101.872 105.774 102.546 105.5 103.344 105.5H112.656C113.454 105.5 114.128 105.774 114.677 106.323C115.225 106.872 115.5 107.546 115.5 108.344V117.656C115.5 118.454 115.225 119.128 114.677 119.677C114.128 120.225 113.454 120.5 112.656 120.5H103.344ZM103.344 100.5C102.546 100.5 101.872 100.225 101.323 99.6767C100.774 99.1275 100.5 98.454 100.5 97.6561V88.3436C100.5 87.5457 100.774 86.8721 101.323 86.3229C101.872 85.7742 102.546 85.4998 103.344 85.4998H112.656C113.454 85.4998 114.128 85.7742 114.677 86.3229C115.225 86.8721 115.5 87.5457 115.5 88.3436V97.6561C115.5 98.454 115.225 99.1275 114.677 99.6767C114.128 100.225 113.454 100.5 112.656 100.5H103.344ZM104.474 116.525H111.525V109.474H104.474V116.525ZM104.474 96.5254H111.525V89.4742H104.474V96.5254ZM124.474 96.5254H131.525V89.4742H124.474V96.5254Z" fill="#322B29"/>
<circle cx="79" cy="53.5" r="6.5" fill="#D9D9D9"/>
<rect x="89.5" y="49" width="40" height="3" rx="1.5" fill="#D9D9D9"/>
<rect x="89.5" y="56" width="60" height="3" rx="1.5" fill="#D9D9D9"/>
</g>
<rect x="101.5" y="18" width="50" height="10" rx="5" fill="#EFF1F4"/>
<rect x="84.5" y="18" width="10" height="10" rx="5" fill="#EFF1F4"/>
<g clip-path="url(#clip3_443_3401)">
<path d="M226.27 128.702L216.303 102.629C214.661 98.3349 209.645 95.3306 205.445 96.7604C201.151 98.4022 199.631 104.081 201.06 108.281L196.956 97.5447C195.314 93.2502 190.298 90.2458 186.099 91.6756C181.804 93.3174 180.284 98.9965 181.926 103.291L187.577 118.533L178.43 94.6073C176.788 90.3128 171.772 87.3084 167.573 88.7383C163.278 90.3801 161.758 96.0592 163.4 100.353L153.432 74.2805C151.79 69.986 146.774 66.9816 142.575 68.4115C138.28 70.0533 136.76 75.7324 138.402 80.0266L161.219 141.091C158.874 134.956 149.086 124.987 141.242 121.481C134.669 118.544 122.346 126.772 133.694 134.387C141.606 139.448 150.844 153.495 153.893 161.471C161.375 180.583 179.292 181.468 179.292 181.468L185.038 196.498L237.184 176.563L231.533 161.32C234.763 149.538 234.479 150.174 226.27 128.702Z" fill="#FFDBBA"/>
<path d="M175.181 127.491C174.897 128.127 174.495 128.457 173.882 128.691C172.655 129.16 171.383 128.592 170.913 127.365L160.125 99.1444C159.656 97.9175 160.224 96.6453 161.451 96.1763C162.678 95.7072 163.95 96.2757 164.419 97.5026L175.208 125.723C175.442 126.337 175.465 126.855 175.181 127.491Z" fill="#FCCC9F"/>
<path d="M191.339 123.775C191.055 124.411 190.653 124.74 190.04 124.975C188.813 125.444 187.541 124.875 187.071 123.648L178.745 101.87C178.276 100.643 178.845 99.3707 180.072 98.9016C181.299 98.4325 182.571 99.001 183.04 100.228L191.366 122.007C191.601 122.62 191.528 123.351 191.339 123.775Z" fill="#FCCC9F"/>
<path d="M206.581 118.124C206.297 118.76 205.895 119.089 205.282 119.323C204.055 119.792 202.783 119.224 202.314 117.997L198.209 107.261C197.74 106.034 198.309 104.762 199.536 104.293C200.763 103.824 202.035 104.392 202.504 105.619L206.608 116.355C206.843 116.969 206.865 117.487 206.581 118.124Z" fill="#FCCC9F"/>
</g>
</g>
</g>
<defs>
<clipPath id="clip0_443_3401">
<rect width="234" height="148" fill="white"/>
</clipPath>
<clipPath id="clip1_443_3401">
<rect width="215" height="138" fill="white" transform="translate(33.5 10)"/>
</clipPath>
<clipPath id="clip2_443_3401">
<rect width="108.327" height="152.243" fill="white" transform="translate(63.5 39)"/>
</clipPath>
<clipPath id="clip3_443_3401">
<rect width="132.524" height="132.524" fill="white" transform="translate(93.7659 172.679) rotate(-65.9219)"/>
</clipPath>
</defs>
</svg>
