<svg width="90" height="90" viewBox="0 0 90 90" fill="none" xmlns="http://www.w3.org/2000/svg">
<g clip-path="url(#clip0_349_7794)">
<path d="M73.125 90H16.875C7.55438 90 0 82.4456 0 73.125V16.875C0 7.55438 7.55438 0 16.875 0H73.125C82.4456 0 90 7.55438 90 16.875V73.125C90 82.4456 82.4456 90 73.125 90Z" fill="#FFF0E3"/>
<path d="M23.9062 29.0615H41.7178C42.4941 29.0615 43.1241 28.4315 43.1241 27.6553C43.1241 26.879 42.4941 26.249 41.7178 26.249H23.9062C23.13 26.249 22.5 26.879 22.5 27.6553C22.5 28.4315 23.13 29.0615 23.9062 29.0615Z" fill="#FEC59D"/>
<path d="M23.9062 34.6865H41.7178C42.4941 34.6865 43.1241 34.0565 43.1241 33.2803C43.1241 32.504 42.4941 31.874 41.7178 31.874H23.9062C23.13 31.874 22.5 32.504 22.5 33.2803C22.5 34.0565 23.13 34.6865 23.9062 34.6865Z" fill="#FEC59D"/>
<path d="M23.9062 40.3115H41.7178C42.4941 40.3115 43.1241 39.6815 43.1241 38.9053C43.1241 38.129 42.4941 37.499 41.7178 37.499H23.9062C23.13 37.499 22.5 38.129 22.5 38.9053C22.5 39.6815 23.13 40.3115 23.9062 40.3115Z" fill="#FEC59D"/>
<path d="M23.9062 53.4375H41.7178C42.4941 53.4375 43.1241 52.8075 43.1241 52.0312C43.1241 51.255 42.4941 50.625 41.7178 50.625H23.9062C23.13 50.625 22.5 51.255 22.5 52.0312C22.5 52.8075 23.13 53.4375 23.9062 53.4375Z" fill="#FEC59D"/>
<path d="M23.9062 59.0625H41.7178C42.4941 59.0625 43.1241 58.4325 43.1241 57.6562C43.1241 56.88 42.4941 56.25 41.7178 56.25H23.9062C23.13 56.25 22.5 56.88 22.5 57.6562C22.5 58.4325 23.13 59.0625 23.9062 59.0625Z" fill="#FEC59D"/>
<path d="M23.9062 64.6875H41.7178C42.4941 64.6875 43.1241 64.0575 43.1241 63.2812C43.1241 62.505 42.4941 61.875 41.7178 61.875H23.9062C23.13 61.875 22.5 62.505 22.5 63.2812C22.5 64.0575 23.13 64.6875 23.9062 64.6875Z" fill="#FEC59D"/>
<path d="M64.2177 22.5H50.1552C48.3552 22.5 46.873 23.9822 46.873 25.7822V39.8447C46.873 41.6447 48.3552 43.1269 50.1552 43.1269H64.2177C66.0177 43.1269 67.4999 41.6447 67.4999 39.8447V25.7822C67.4999 23.9822 66.0177 22.5 64.2177 22.5Z" fill="#FF7E53"/>
<path d="M64.2177 46.876H50.1552C48.3552 46.876 46.873 48.3582 46.873 50.1582V64.2207C46.873 66.0207 48.3552 67.5028 50.1552 67.5028H64.2177C66.0177 67.5 67.4999 66.0179 67.4999 64.2179V50.1554C67.4999 48.3554 66.0177 46.876 64.2177 46.876Z" fill="#FF7E53"/>
<path d="M56.25 32.8106C56.7673 32.8106 57.1866 32.3913 57.1866 31.8741C57.1866 31.3568 56.7673 30.9375 56.25 30.9375C55.7328 30.9375 55.3135 31.3568 55.3135 31.8741C55.3135 32.3913 55.7328 32.8106 56.25 32.8106Z" fill="#FF7E53"/>
<path d="M62.765 33.4796L60.3259 31.8434L60.2926 29.7464L60.2908 28.8874C60.27 28.0687 59.3193 27.6134 58.6732 28.1293L56.3617 29.9462L53.5421 29.0589C52.7369 28.8196 52.0174 29.5971 52.2968 30.3692L53.3261 33.14L51.609 35.5412C51.1849 36.1513 51.5083 37.0822 52.4682 37.1177L53.3262 37.0761L55.4221 37.0029L57.1807 39.3755C57.6766 40.0223 58.7108 39.8362 58.9506 39.051L59.7376 36.2139L62.5304 35.2639C63.3226 34.9838 63.4559 33.9416 62.765 33.4796Z" fill="#FFF0E3"/>
<path d="M62.778 56.9445L60.4253 55.1864L60.4987 53.0904L60.5406 52.2324C60.5614 51.4137 59.6352 50.9106 58.9636 51.393L56.5627 53.09L53.7919 52.0604C52.9999 51.7805 52.2418 52.5204 52.4815 53.3057L53.3686 56.1253L51.5316 58.436C51.077 59.0238 51.3526 59.9699 52.3095 60.0542L53.1685 60.0563L55.2655 60.0897L56.9011 62.5488C57.3635 63.22 58.4058 63.0866 58.6852 62.3146L59.6155 59.5213L62.453 58.7145C63.2584 58.4751 63.4446 57.441 62.778 56.9445Z" fill="#FFF0E3"/>
</g>
<defs>
<clipPath id="clip0_349_7794">
<rect width="90" height="90" fill="white"/>
</clipPath>
</defs>
</svg>
