<svg width="20" height="21" viewBox="0 0 20 21" fill="none" xmlns="http://www.w3.org/2000/svg">
<path d="M2.44523 6.32001C2.17926 6.32001 1.95474 6.22848 1.77169 6.04543C1.58877 5.86251 1.49731 5.63807 1.49731 5.3721V2.8571C1.49731 2.59112 1.58877 2.36661 1.77169 2.18355C1.95474 2.00064 2.17926 1.90918 2.44523 1.90918H4.96023C5.2262 1.90918 5.45065 2.00064 5.63356 2.18355C5.81662 2.36661 5.90815 2.59112 5.90815 2.8571C5.90815 3.12307 5.81662 3.34758 5.63356 3.53064C5.45065 3.71355 5.2262 3.80501 4.96023 3.80501H3.39315V5.3721C3.39315 5.63807 3.30169 5.86251 3.11877 6.04543C2.93572 6.22848 2.7112 6.32001 2.44523 6.32001ZM2.44523 18.9146C2.17926 18.9146 1.95474 18.8231 1.77169 18.6402C1.58877 18.4572 1.49731 18.2326 1.49731 17.9667V15.4517C1.49731 15.1857 1.58877 14.9613 1.77169 14.7783C1.95474 14.5953 2.17926 14.5038 2.44523 14.5038C2.7112 14.5038 2.93572 14.5953 3.11877 14.7783C3.30169 14.9613 3.39315 15.1857 3.39315 15.4517V17.0188H4.96023C5.2262 17.0188 5.45065 17.1102 5.63356 17.2931C5.81662 17.4762 5.90815 17.7007 5.90815 17.9667C5.90815 18.2326 5.81662 18.4572 5.63356 18.6402C5.45065 18.8231 5.2262 18.9146 4.96023 18.9146H2.44523ZM15.0398 18.9146C14.7738 18.9146 14.5494 18.8231 14.3665 18.6402C14.1834 18.4572 14.0919 18.2326 14.0919 17.9667C14.0919 17.7007 14.1834 17.4762 14.3665 17.2931C14.5494 17.1102 14.7738 17.0188 15.0398 17.0188H16.6069V15.4517C16.6069 15.1857 16.6984 14.9613 16.8813 14.7783C17.0643 14.5953 17.2888 14.5038 17.5548 14.5038C17.8208 14.5038 18.0453 14.5953 18.2284 14.7783C18.4113 14.9613 18.5027 15.1857 18.5027 15.4517V17.9667C18.5027 18.2326 18.4113 18.4572 18.2284 18.6402C18.0453 18.8231 17.8208 18.9146 17.5548 18.9146H15.0398ZM17.5548 6.32001C17.2888 6.32001 17.0643 6.22848 16.8813 6.04543C16.6984 5.86251 16.6069 5.63807 16.6069 5.3721V3.80501H15.0398C14.7738 3.80501 14.5494 3.71355 14.3665 3.53064C14.1834 3.34758 14.0919 3.12307 14.0919 2.8571C14.0919 2.59112 14.1834 2.36661 14.3665 2.18355C14.5494 2.00064 14.7738 1.90918 15.0398 1.90918H17.5548C17.8208 1.90918 18.0453 2.00064 18.2284 2.18355C18.4113 2.36661 18.5027 2.59112 18.5027 2.8571V5.3721C18.5027 5.63807 18.4113 5.86251 18.2284 6.04543C18.0453 6.22848 17.8208 6.32001 17.5548 6.32001ZM14.5834 16.2452V14.9952H15.8334V16.2452H14.5834ZM14.5834 13.7452V12.4952H15.8334V13.7452H14.5834ZM13.3334 14.9952V13.7452H14.5834V14.9952H13.3334ZM12.0834 16.2452V14.9952H13.3334V16.2452H12.0834ZM10.8334 14.9952V13.7452H12.0834V14.9952H10.8334ZM13.3334 12.4952V11.2452H14.5834V12.4952H13.3334ZM12.0834 13.7452V12.4952H13.3334V13.7452H12.0834ZM10.8334 12.4952V11.2452H12.0834V12.4952H10.8334ZM11.7813 9.57855C11.5153 9.57855 11.2908 9.4871 11.1077 9.30418C10.9248 9.12112 10.8334 8.89661 10.8334 8.63064V5.52647C10.8334 5.2605 10.9248 5.03598 11.1077 4.85293C11.2908 4.67001 11.5153 4.57855 11.7813 4.57855H14.8854C15.1514 4.57855 15.3759 4.67001 15.559 4.85293C15.7419 5.03598 15.8334 5.2605 15.8334 5.52647V8.63064C15.8334 8.89661 15.7419 9.12112 15.559 9.30418C15.3759 9.4871 15.1514 9.57855 14.8854 9.57855H11.7813ZM5.11461 16.2452C4.84863 16.2452 4.62412 16.1538 4.44106 15.9708C4.25815 15.7878 4.16669 15.5633 4.16669 15.2973V12.1931C4.16669 11.9272 4.25815 11.7027 4.44106 11.5196C4.62412 11.3367 4.84863 11.2452 5.11461 11.2452H8.21877C8.48474 11.2452 8.70926 11.3367 8.89231 11.5196C9.07523 11.7027 9.16669 11.9272 9.16669 12.1931V15.2973C9.16669 15.5633 9.07523 15.7878 8.89231 15.9708C8.70926 16.1538 8.48474 16.2452 8.21877 16.2452H5.11461ZM5.11461 9.57855C4.84863 9.57855 4.62412 9.4871 4.44106 9.30418C4.25815 9.12112 4.16669 8.89661 4.16669 8.63064V5.52647C4.16669 5.2605 4.25815 5.03598 4.44106 4.85293C4.62412 4.67001 4.84863 4.57855 5.11461 4.57855H8.21877C8.48474 4.57855 8.70926 4.67001 8.89231 4.85293C9.07523 5.03598 9.16669 5.2605 9.16669 5.52647V8.63064C9.16669 8.89661 9.07523 9.12112 8.89231 9.30418C8.70926 9.4871 8.48474 9.57855 8.21877 9.57855H5.11461ZM5.49148 14.9204H7.8419V12.57H5.49148V14.9204ZM5.49148 8.25376H7.8419V5.90335H5.49148V8.25376ZM12.1581 8.25376H14.5086V5.90335H12.1581V8.25376Z" fill="#322B29"/>
</svg>
