<svg width="130" height="90" viewBox="0 0 130 90" fill="none" xmlns="http://www.w3.org/2000/svg">
<g clip-path="url(#clip0_349_5048)">
<path d="M118.966 1.99951L8.35922 1.99951C3.99591 1.99951 0.45874 5.58123 0.45874 9.99951L0.45874 79.3328C0.45874 83.7511 3.99591 87.3328 8.35922 87.3328H118.966C123.329 87.3328 126.866 83.7511 126.866 79.3328V9.99951C126.866 5.58123 123.329 1.99951 118.966 1.99951Z" fill="#FFF0E3"/>
<path d="M42.5943 76.6668C60.0476 76.6668 74.1963 62.3399 74.1963 44.6668C74.1963 26.9936 60.0476 12.6667 42.5943 12.6667C25.1411 12.6667 10.9924 26.9936 10.9924 44.6668C10.9924 62.3399 25.1411 76.6668 42.5943 76.6668Z" fill="white"/>
<path opacity="0.4" d="M57.7008 43.66V56.6196C57.8126 57.4126 57.7405 58.221 57.4903 58.9808C57.2401 59.7407 56.8186 60.4312 56.2593 60.9975C55.6999 61.5639 55.0181 61.9907 54.2676 62.244C53.5172 62.4974 52.7189 62.5704 51.9358 62.4573H46.8049C46.652 62.4573 46.5054 62.3958 46.3973 62.2863C46.2891 62.1768 46.2284 62.0283 46.2284 61.8735V55.8841C46.2511 54.9352 45.9448 54.0082 45.3627 53.2642C44.7807 52.5202 43.9596 52.0061 43.0422 51.8113C42.4903 51.716 41.9245 51.7437 41.3842 51.8924C40.8439 52.041 40.3421 52.3072 39.9137 52.6722C39.4853 53.0373 39.1406 53.4925 38.9037 54.0062C38.6667 54.5199 38.5432 55.0797 38.5417 55.6467V61.8735C38.5417 62.0283 38.4809 62.1768 38.3728 62.2863C38.2647 62.3958 38.1181 62.4573 37.9652 62.4573H32.719C31.9359 62.5704 31.1375 62.4974 30.3871 62.244C29.6367 61.9907 28.9548 61.5639 28.3955 60.9975C27.8362 60.4312 27.4147 59.7407 27.1645 58.9808C26.9143 58.221 26.8422 57.4126 26.9539 56.6196V43.66C27.1687 43.844 27.4004 44.0069 27.6457 44.1465C28.546 44.6707 29.5666 44.9458 30.6051 44.9443C31.8535 44.9592 33.0779 44.5969 34.1219 43.9037C35.166 43.2105 35.9822 42.2178 36.4663 41.0525C36.9628 42.2086 37.782 43.1926 38.8232 43.8838C39.8645 44.575 41.0824 44.9432 42.3274 44.9432C43.5724 44.9432 44.7903 44.575 45.8315 43.8838C46.8727 43.1926 47.6919 42.2086 48.1885 41.0525C48.6726 42.2178 49.4888 43.2105 50.5328 43.9037C51.5768 44.5969 52.8013 44.9592 54.0496 44.9443C55.0881 44.9458 56.1088 44.6707 57.009 44.1465C57.2544 44.0069 57.486 43.844 57.7008 43.66Z" fill="#FFC499"/>
<path d="M50.9846 27.4313C55.7888 27.4313 56.5248 29.0269 57.3261 31.397L59.3228 37.3767C59.7637 38.6023 59.7753 39.9442 59.3554 41.1774C58.9356 42.4106 58.1099 43.4602 57.0168 44.1504C56.1175 44.6748 55.097 44.9487 54.0593 44.9443C52.81 44.9575 51.5851 44.5947 50.5399 43.9018C49.4946 43.2089 48.6762 42.2172 48.1885 41.0525C47.6944 42.2085 46.8772 43.1928 45.8374 43.8843C44.7977 44.5759 43.581 44.9443 42.337 44.9443C41.0931 44.9443 39.8763 44.5759 38.8366 43.8843C37.7969 43.1928 36.9796 42.2085 36.4855 41.0525C35.9972 42.2187 35.1773 43.2115 34.1302 43.9045C33.0831 44.5975 31.856 44.9595 30.6052 44.9443C29.57 44.9477 28.5523 44.6738 27.6554 44.1504C26.5622 43.4602 25.7365 42.4106 25.3167 41.1774C24.8969 39.9442 24.9084 38.6023 25.3494 37.3767L27.3575 31.397C28.1492 29.0269 28.8852 27.4313 33.6895 27.4313H50.9846Z" fill="#FF7E53"/>
<path d="M113.699 31.3328H87.3637C86.6653 31.3328 85.9954 31.0519 85.5016 30.5518C85.0077 30.0517 84.7302 29.3734 84.7302 28.6662C84.7302 27.9589 85.0077 27.2807 85.5016 26.7806C85.9954 26.2805 86.6653 25.9995 87.3637 25.9995H113.699C114.397 25.9995 115.067 26.2805 115.561 26.7806C116.055 27.2807 116.332 27.9589 116.332 28.6662C116.332 29.3734 116.055 30.0517 115.561 30.5518C115.067 31.0519 114.397 31.3328 113.699 31.3328Z" fill="#FF7D52"/>
<path d="M113.699 47.3333H87.3645C86.666 47.3333 85.9962 47.0524 85.5023 46.5523C85.0084 46.0522 84.731 45.3739 84.731 44.6667C84.731 43.9594 85.0084 43.2811 85.5023 42.781C85.9962 42.2809 86.666 42 87.3645 42H113.699C114.398 42 115.068 42.2809 115.562 42.781C116.055 43.2811 116.333 43.9594 116.333 44.6667C116.333 45.3739 116.055 46.0522 115.562 46.5523C115.068 47.0524 114.398 47.3333 113.699 47.3333Z" fill="#FF7D52"/>
<path d="M100.531 63.3332H87.3637C86.6653 63.3332 85.9954 63.0523 85.5016 62.5522C85.0077 62.0521 84.7302 61.3738 84.7302 60.6665C84.7302 59.9593 85.0077 59.281 85.5016 58.7809C85.9954 58.2808 86.6653 57.9999 87.3637 57.9999H100.531C101.23 57.9999 101.899 58.2808 102.393 58.7809C102.887 59.281 103.165 59.9593 103.165 60.6665C103.165 61.3738 102.887 62.0521 102.393 62.5522C101.899 63.0523 101.23 63.3332 100.531 63.3332Z" fill="#FF7D52"/>
</g>
<defs>
<clipPath id="clip0_349_5048">
<rect width="129" height="90" fill="white" transform="translate(0.5)"/>
</clipPath>
</defs>
</svg>
