<svg width="108" height="108" viewBox="0 0 108 108" fill="none" xmlns="http://www.w3.org/2000/svg">
<rect x="0.5" y="0.5" width="107" height="107" rx="53.5" fill="#FCFCFC"/>
<rect x="0.5" y="0.5" width="107" height="107" rx="53.5" stroke="#E7E7E7" stroke-linecap="round" stroke-linejoin="round"/>
<path opacity="0.4" d="M76.1698 52.1094V70.809C76.331 71.9532 76.227 73.1197 75.866 74.2161C75.505 75.3125 74.8968 76.3088 74.0898 77.126C73.2827 77.9433 72.2988 78.5591 71.216 78.9246C70.1333 79.2902 68.9813 79.3955 67.8514 79.2323H60.4479C60.2273 79.2323 60.0157 79.1436 59.8597 78.9856C59.7037 78.8276 59.6161 78.6134 59.6161 78.39V69.7477C59.6488 68.3786 59.2068 67.041 58.367 65.9675C57.5271 64.894 56.3425 64.1522 55.0187 63.8711C54.2223 63.7336 53.4059 63.7735 52.6263 63.988C51.8467 64.2026 51.1226 64.5866 50.5045 65.1133C49.8864 65.6401 49.389 66.297 49.0472 67.0382C48.7053 67.7794 48.527 68.5871 48.5248 69.4052V78.39C48.5248 78.6134 48.4372 78.8276 48.2812 78.9856C48.1252 79.1436 47.9136 79.2323 47.6929 79.2323H40.1231C38.9932 79.3955 37.8413 79.2902 36.7585 78.9246C35.6757 78.5591 34.6918 77.9433 33.8848 77.126C33.0777 76.3088 32.4696 75.3125 32.1085 74.2161C31.7475 73.1197 31.6435 71.9532 31.8047 70.809V52.1094C32.1146 52.375 32.4489 52.61 32.8029 52.8114C34.1019 53.5678 35.5746 53.9648 37.073 53.9625C38.8743 53.9841 40.6411 53.4613 42.1475 52.4611C43.6539 51.4608 44.8316 50.0285 45.5301 48.347C46.2467 50.0152 47.4287 51.4351 48.9311 52.4324C50.4335 53.4297 52.1908 53.961 53.9873 53.961C55.7837 53.961 57.541 53.4297 59.0434 52.4324C60.5458 51.4351 61.7279 50.0152 62.4444 48.347C63.1429 50.0285 64.3206 51.4608 65.827 52.4611C67.3334 53.4613 69.1002 53.9841 70.9015 53.9625C72.3999 53.9648 73.8726 53.5678 75.1716 52.8114C75.5256 52.61 75.8599 52.375 76.1698 52.1094Z" fill="#DCDCDC"/>
<path d="M66.4791 28.6929C73.4111 28.6929 74.4731 30.9952 75.6294 34.4151L78.5104 43.0433C79.1466 44.8118 79.1633 46.748 78.5575 48.5274C77.9517 50.3068 76.7603 51.8213 75.183 52.8171C73.8854 53.5738 72.413 53.969 70.9156 53.9626C69.1131 53.9817 67.3456 53.4582 65.8374 52.4584C64.3292 51.4586 63.1483 50.0276 62.4446 48.3471C61.7317 50.0151 60.5524 51.4354 59.0522 52.4332C57.552 53.431 55.7963 53.9627 54.0014 53.9627C52.2065 53.9627 50.4508 53.431 48.9506 52.4332C47.4503 51.4354 46.2711 50.0151 45.5581 48.3471C44.8535 50.0299 43.6705 51.4623 42.1596 52.4623C40.6487 53.4623 38.8782 53.9845 37.0733 53.9626C35.5796 53.9676 34.1112 53.5724 32.817 52.8171C31.2397 51.8213 30.0483 50.3068 29.4425 48.5274C28.8367 46.748 28.8534 44.8118 29.4896 43.0433L32.3872 34.4151C33.5296 30.9952 34.5916 28.6929 41.5237 28.6929H66.4791Z" fill="#CFCFCF"/>
</svg>
