<svg width="25" height="24" viewBox="0 0 25 24" fill="none" xmlns="http://www.w3.org/2000/svg">
<path d="M5.49995 4H19.5C19.7833 4 20.0208 4.09583 20.2125 4.2875C20.4041 4.47917 20.5 4.71667 20.5 5C20.5 5.28333 20.4041 5.52083 20.2125 5.7125C20.0208 5.90417 19.7833 6 19.5 6H5.49995C5.21662 6 4.97912 5.90417 4.78745 5.7125C4.59578 5.52083 4.49995 5.28333 4.49995 5C4.49995 4.71667 4.59578 4.47917 4.78745 4.2875C4.97912 4.09583 5.21662 4 5.49995 4ZM5.49995 20C5.21662 20 4.97912 19.9042 4.78745 19.7125C4.59578 19.5208 4.49995 19.2833 4.49995 19V14H4.32495C4.00828 14 3.74995 13.8792 3.54995 13.6375C3.34995 13.3958 3.28328 13.1167 3.34995 12.8L4.34995 7.8C4.39995 7.56667 4.51662 7.375 4.69995 7.225C4.88328 7.075 5.09162 7 5.32495 7H19.675C19.9083 7 20.1166 7.075 20.3 7.225C20.4833 7.375 20.6 7.56667 20.65 7.8L21.65 12.8C21.7166 13.1167 21.65 13.3958 21.45 13.6375C21.25 13.8792 20.9916 14 20.675 14H20.5V19C20.5 19.2833 20.4041 19.5208 20.2125 19.7125C20.0208 19.9042 19.7833 20 19.5 20C19.2166 20 18.9791 19.9042 18.7875 19.7125C18.5958 19.5208 18.5 19.2833 18.5 19V14H14.5V19C14.5 19.2833 14.4041 19.5208 14.2125 19.7125C14.0208 19.9042 13.7833 20 13.5 20H5.49995ZM6.49995 18H12.5V14H6.49995V18ZM5.54995 12H19.45L18.85 9H6.14995L5.54995 12Z" fill="currentColor"/>
</svg>
