<svg width="18" height="18" viewBox="0 0 18 18" fill="none" xmlns="http://www.w3.org/2000/svg">
<path d="M5.74157 14.9028C5.39632 14.9028 5.10078 14.7799 4.85494 14.5341C4.60911 14.2883 4.48619 13.9927 4.48619 13.6475V4.83339H4.31258C4.16501 4.83339 4.04134 4.78345 3.94157 4.68357C3.84169 4.58368 3.79175 4.45996 3.79175 4.31239C3.79175 4.1647 3.84169 4.04103 3.94157 3.94138C4.04134 3.84161 4.16501 3.79173 4.31258 3.79173H6.91675C6.91675 3.6217 6.97664 3.4768 7.09644 3.357C7.21611 3.23733 7.36096 3.17749 7.53098 3.17749H10.4692C10.6392 3.17749 10.7841 3.23733 10.9037 3.357C11.0235 3.4768 11.0834 3.6217 11.0834 3.79173H13.6876C13.8352 3.79173 13.9588 3.84167 14.0586 3.94155C14.1585 4.04144 14.2084 4.16516 14.2084 4.31273C14.2084 4.46042 14.1585 4.58409 14.0586 4.68374C13.9588 4.78351 13.8352 4.83339 13.6876 4.83339H13.514V13.6475C13.514 13.9927 13.3911 14.2883 13.1452 14.5341C12.8994 14.7799 12.6038 14.9028 12.2586 14.9028H5.74157ZM12.4723 4.83339H5.52786V13.6475C5.52786 13.7098 5.54788 13.7611 5.58793 13.8011C5.62797 13.8411 5.67919 13.8612 5.74157 13.8612H12.2586C12.321 13.8612 12.3722 13.8411 12.4122 13.8011C12.4523 13.7611 12.4723 13.7098 12.4723 13.6475V4.83339ZM7.71831 12.4723C7.86588 12.4723 7.98955 12.4224 8.08932 12.3226C8.18897 12.2227 8.2388 12.099 8.2388 11.9514V6.74312C8.2388 6.59555 8.18885 6.47182 8.08897 6.37193C7.9892 6.27217 7.86548 6.22228 7.71779 6.22228C7.57022 6.22228 7.44655 6.27217 7.34678 6.37193C7.24713 6.47182 7.1973 6.59555 7.1973 6.74312V11.9514C7.1973 12.099 7.24719 12.2227 7.34696 12.3226C7.44684 12.4224 7.57063 12.4723 7.71831 12.4723ZM10.2824 12.4723C10.4299 12.4723 10.5536 12.4224 10.6534 12.3226C10.753 12.2227 10.8029 12.099 10.8029 11.9514V6.74312C10.8029 6.59555 10.753 6.47182 10.6532 6.37193C10.5533 6.27217 10.4295 6.22228 10.2819 6.22228C10.1343 6.22228 10.0106 6.27217 9.91085 6.37193C9.81119 6.47182 9.76137 6.59555 9.76137 6.74312V11.9514C9.76137 12.099 9.81131 12.2227 9.91119 12.3226C10.011 12.4224 10.1347 12.4723 10.2824 12.4723Z" fill="#303030"/>
</svg>
